<svg xmlns="http://www.w3.org/2000/svg" viewBox="0 0 680 330" width="1360" height="660">
<rect width="680" height="330" fill="#ffffff"/>
<rect x="20" y="40" width="150" height="50" rx="8" fill="#dbeafe" stroke="#2563eb" stroke-width="1.5"/>
<text x="95" y="70" font-family="Noto Sans CJK SC" font-size="13" fill="#2563eb" text-anchor="middle" font-weight="600">思考 Reason</text>
<rect x="265" y="40" width="150" height="50" rx="8" fill="#dbeafe" stroke="#2563eb" stroke-width="1.5"/>
<text x="340" y="70" font-family="Noto Sans CJK SC" font-size="13" fill="#2563eb" text-anchor="middle" font-weight="600">行动 Act（调工具）</text>
<rect x="510" y="40" width="150" height="50" rx="8" fill="#dbeafe" stroke="#2563eb" stroke-width="1.5"/>
<text x="585" y="70" font-family="Noto Sans CJK SC" font-size="13" fill="#2563eb" text-anchor="middle" font-weight="600">观察 Observe</text>
<line x1="170" y1="65" x2="263" y2="65" stroke="#2563eb" stroke-width="1.6"/>
<polygon points="263,65 255.0,61.0 255.0,69.0" fill="#2563eb"/>
<line x1="415" y1="65" x2="508" y2="65" stroke="#2563eb" stroke-width="1.6"/>
<polygon points="508,65 500.0,61.0 500.0,69.0" fill="#2563eb"/>
<path d="M585,90 C585,140 95,140 95,90" fill="none" stroke="#2563eb" stroke-width="1.6"/>
<polygon points="95,92 91.0,100.0 99.0,100.0" fill="#2563eb"/>
<text x="340" y="132" font-family="Noto Sans CJK SC" font-size="11" fill="#2563eb" text-anchor="middle" font-weight="600">结果喂回 → 再思考（循环，直到信息够了）</text>
<rect x="20" y="170" width="640" height="44" rx="8" fill="#dcfce7" stroke="#16a34a" stroke-width="1.5"/>
<text x="340" y="197" font-family="Noto Sans CJK SC" font-size="13" fill="#16a34a" text-anchor="middle" font-weight="600">信息够了 → 最终回答</text>
<rect x="20" y="232" width="640" height="86" rx="8" fill="#f3f4f6" stroke="#9ca3af" stroke-width="1.5"/>
<text x="34" y="256" font-family="Noto Sans CJK SC" font-size="12" fill="#1f2937" text-anchor="start" font-weight="600">执行轨迹示例（问“北京今天天气?”）</text>
<text x="34" y="278" font-family="Noto Sans CJK SC" font-size="10.5" fill="#4b5563" text-anchor="start">思考：实时天气训练数据里没有 → 得查工具   |   行动：weather_api(city="北京")   |   观察：“晴, 26°C”</text>
<text x="34" y="296" font-family="Noto Sans CJK SC" font-size="10.5" fill="#4b5563" text-anchor="start">思考：信息够了 → 回答：北京今天晴，26°C</text>
</svg>
